HIERARCHY
ROOT Hips
{
	OFFSET -0.001795 -0.223333 0.028219
	CHANNELS 6 Xposition Yposition Zposition Zrotation Yrotation Xrotation 
	JOINT LeftUpLeg
	{
		OFFSET 0.069520 -0.091406 -0.006815
		CHANNELS 3 Zrotation Yrotation Xrotation
		JOINT LeftLeg
		{
			OFFSET 0.034277 -0.375199 -0.004496
			CHANNELS 3 Zrotation Yrotation Xrotation
			JOINT LeftFoot
			{
				OFFSET -0.013596 -0.397961 -0.043693
				CHANNELS 3 Zrotation Yrotation Xrotation
				JOINT LeftToe
				{
					OFFSET 0.026358 -0.055791 0.119288
					CHANNELS 3 Zrotation Yrotation Xrotation
					End Site
					{
						OFFSET 0.000000 0.000000 0.000000
					}
				}
			}
		}
	}
	JOINT RightUpLeg
	{
		OFFSET -0.067670 -0.090522 -0.004320
		CHANNELS 3 Zrotation Yrotation Xrotation
		JOINT RightLeg
		{
			OFFSET -0.038290 -0.382569 -0.008850
			CHANNELS 3 Zrotation Yrotation Xrotation
			JOINT RightFoot
			{
				OFFSET 0.015774 -0.398415 -0.042312
				CHANNELS 3 Zrotation Yrotation Xrotation
				JOINT RightToe
				{
					OFFSET -0.025372 -0.048144 0.123348
					CHANNELS 3 Zrotation Yrotation Xrotation
					End Site
					{
						OFFSET 0.000000 0.000000 0.000000
					}
				}
			}
		}
	}
	JOINT Spine
	{
		OFFSET -0.002533 0.108963 -0.026696
		CHANNELS 3 Zrotation Yrotation Xrotation
		JOINT Spine1
		{
			OFFSET 0.005487 0.135180 0.001092
			CHANNELS 3 Zrotation Yrotation Xrotation
			JOINT Spine2
			{
				OFFSET 0.001457 0.052922 0.025425
				CHANNELS 3 Zrotation Yrotation Xrotation
				JOINT Neck
				{
					OFFSET -0.002778 0.213870 -0.042857
					CHANNELS 3 Zrotation Yrotation Xrotation
					JOINT Head
					{
						OFFSET 0.005152 0.064970 0.051349
						CHANNELS 3 Zrotation Yrotation Xrotation
						End Site
						{
							OFFSET 0.000000 0.000000 0.000000
						}
					}
				}
				JOINT LeftShoulder
				{
					OFFSET 0.078845 0.121749 -0.034090
					CHANNELS 3 Zrotation Yrotation Xrotation
					JOINT LeftArm
					{
						OFFSET 0.090977 0.030469 -0.008868
						CHANNELS 3 Zrotation Yrotation Xrotation
						JOINT LeftForeArm
						{
							OFFSET 0.259612 -0.012772 -0.027456
							CHANNELS 3 Zrotation Yrotation Xrotation
							JOINT LeftHand
							{
								OFFSET 0.249234 0.008986 -0.001171
								CHANNELS 3 Zrotation Yrotation Xrotation
								End Site
								{
									OFFSET 0.000000 0.000000 0.000000
								}
							}
						}
					}
				}
				JOINT RightShoulder
				{
					OFFSET -0.081759 0.118833 -0.038615
					CHANNELS 3 Zrotation Yrotation Xrotation
					JOINT RightArm
					{
						OFFSET -0.096012 0.032551 -0.009143
						CHANNELS 3 Zrotation Yrotation Xrotation
						JOINT RightForeArm
						{
							OFFSET -0.253742 -0.013329 -0.021401
							CHANNELS 3 Zrotation Yrotation Xrotation
							JOINT RightHand
							{
								OFFSET -0.255298 0.007772 -0.005559
								CHANNELS 3 Zrotation Yrotation Xrotation
								End Site
								{
									OFFSET 0.000000 0.000000 0.000000
								}
							}
						}
					}
				}
			}
		}
	}
}
MOTION
Frames: 8
Frame Time: 0.050000
1.247806 0.800439 0.267855 -0.259163 -18.757693 2.319868 13.049662 3.158382 -32.521724 -3.986427 7.999045 64.607189 4.085802 2.752106 -18.738854 0.000000 0.000000 0.000000 -14.232533 3.791726 -50.998885 31.360169 -15.086582 65.810508 -14.820670 -35.913751 0.348844 0.000000 0.000000 0.000000 0.343436 1.260413 41.901395 2.902100 -1.327438 -1.234414 -1.240724 2.554091 3.435826 14.076042 -4.059504 -33.052599 0.000000 0.000000 0.000000 -29.557810 -15.033954 8.706291 -23.692566 -23.654550 0.667658 16.947862 -42.811380 -4.602706 0.000000 0.000000 0.000000 19.021666 6.885318 0.846631 42.128038 7.614591 -1.145822 18.404750 57.616577 11.127343 0.000000 0.000000 0.000000 
1.201631 0.800801 0.272664 -0.431852 -19.185767 2.013384 16.071230 4.001765 -30.416629 -2.807357 7.146825 64.706269 3.065879 -0.780586 -19.113418 0.000000 0.000000 0.000000 -18.840095 2.172722 -50.765069 31.990298 -15.276947 64.361421 -13.685268 -34.561338 -2.383189 0.000000 0.000000 0.000000 0.552807 1.191149 41.340403 3.100939 -1.401031 -2.472216 0.306467 0.444478 5.718785 12.627742 -3.610891 -34.405572 0.000000 0.000000 0.000000 -28.714046 -12.657058 8.292609 -24.388762 -23.840734 0.339283 19.135100 -46.329597 -5.623224 0.000000 0.000000 0.000000 16.399362 6.465097 0.249620 43.137039 5.063359 -2.109843 20.053842 57.114837 11.270704 0.000000 0.000000 0.000000 
1.145337 0.798926 0.280879 -0.019020 -19.902998 0.787597 19.383520 4.424784 -25.291661 -3.740796 7.595401 61.208267 3.096644 -0.106545 -18.820249 0.000000 0.000000 0.000000 -24.973061 0.217272 -50.001831 29.620775 -13.235779 62.722739 -14.949988 -35.738457 2.310975 0.000000 0.000000 0.000000 1.431646 1.031479 41.956786 3.782972 -1.734791 -1.580798 0.226019 -1.497346 3.708722 10.144470 -2.865583 -33.643240 0.000000 0.000000 0.000000 -30.065561 -10.368733 7.642849 -23.407029 -23.208831 0.022010 19.814328 -49.900665 -6.252672 0.000000 0.000000 0.000000 13.235469 5.295225 -0.335553 45.160200 3.415510 -2.690495 20.365209 56.837162 10.676906 0.000000 0.000000 0.000000 
1.075957 0.800168 0.292343 1.719881 -21.731122 1.089057 23.022088 4.505419 -18.390203 -4.430809 7.123116 52.817035 1.917633 -2.210214 -17.665284 0.000000 0.000000 0.000000 -30.017043 -0.882486 -51.431143 25.736682 -10.072443 59.580444 -16.436753 -36.580947 9.236484 0.000000 0.000000 0.000000 2.261770 0.719194 38.861149 4.154229 -1.898122 -0.989899 -1.516472 -3.965029 3.159420 8.446715 -2.651163 -32.393877 0.000000 0.000000 0.000000 -29.187719 -5.774289 5.565497 -24.346918 -22.748667 -0.229043 19.841193 -53.756407 -6.287925 0.000000 0.000000 0.000000 12.350175 5.543787 -0.613065 42.516789 -1.023239 -3.838430 25.745702 57.496255 13.000115 0.000000 0.000000 0.000000 
0.985308 0.809103 0.307121 2.551574 -24.576758 3.299185 25.735026 3.403188 -7.285206 -6.252398 5.233541 34.685288 3.125825 5.275433 -10.955288 0.000000 0.000000 0.000000 -32.262165 -0.720839 -52.873849 22.069778 -7.079533 55.860258 -17.508636 -36.717185 16.524694 0.000000 0.000000 0.000000 4.015609 0.059308 33.946052 3.588579 -1.584687 1.275998 -2.177095 -4.275005 1.279894 5.194796 -1.381411 -32.677332 0.000000 0.000000 0.000000 -29.625250 -0.810733 2.591672 -25.987655 -20.460725 -0.500668 18.640663 -59.158921 -5.997330 0.000000 0.000000 0.000000 7.204486 3.430225 -0.615345 44.645602 -1.601920 -4.531183 25.244037 55.154994 11.551483 0.000000 0.000000 0.000000 
0.871778 0.824487 0.323325 4.389719 -23.166594 4.520325 25.792823 2.237456 -1.377942 -0.688295 0.942159 22.836073 2.751717 6.248655 3.847292 0.000000 0.000000 0.000000 -32.662511 -1.089962 -49.621109 19.898229 -5.817313 54.244142 -17.081794 -35.233644 19.733890 0.000000 0.000000 0.000000 5.578154 -0.793882 29.473396 3.723507 -1.635137 -1.022374 -2.390203 -7.665644 2.424225 1.061325 -0.272858 -31.410862 0.000000 0.000000 0.000000 -32.228136 5.818273 -0.569349 -27.814967 -18.294164 -1.371310 20.958400 -67.686173 -7.535683 0.000000 0.000000 0.000000 5.075400 2.036560 -0.897493 40.698091 -3.555161 -4.833915 36.636166 55.636873 16.561781 0.000000 0.000000 0.000000 
0.740585 0.839209 0.335896 7.150759 -21.131489 5.165138 26.667463 1.773178 0.554016 0.243222 0.070398 15.323917 -0.550620 2.645885 17.658120 0.000000 0.000000 0.000000 -31.406524 -1.189648 -47.649809 22.564914 -7.579630 53.528719 -16.275678 -35.310329 14.344789 0.000000 0.000000 0.000000 5.349148 -1.018822 25.392511 3.593576 -1.558431 -2.197736 -3.837146 -8.304683 1.371763 0.596510 -0.175224 -29.190776 0.000000 0.000000 0.000000 -35.384173 8.037165 -2.428956 -24.684730 -16.960800 -1.641178 21.731230 -66.457991 -8.414135 0.000000 0.000000 0.000000 1.053608 0.982020 -0.119242 43.764413 -5.816920 -6.482552 31.388708 54.270990 13.390762 0.000000 0.000000 0.000000 
0.601132 0.854615 0.340277 9.177885 -20.046434 4.476647 24.041146 1.814979 -3.171764 -3.026268 1.716849 23.853174 2.418013 7.181270 16.385789 0.000000 0.000000 0.000000 -25.110047 0.307690 -43.005230 23.186936 -7.272351 52.966566 -22.775742 -47.562467 7.856125 0.000000 0.000000 0.000000 4.319803 -0.848419 22.795202 2.137261 -0.944745 -2.132535 -4.191991 -9.307911 3.442838 -0.370558 0.064806 -29.590888 0.000000 0.000000 0.000000 -33.931399 9.940235 -3.378968 -26.173448 -15.484531 -2.085046 36.540741 -72.507711 -19.506871 0.000000 0.000000 0.000000 3.171333 -0.643864 -1.312473 41.205972 -5.003076 -5.619624 32.012159 53.037535 13.069120 0.000000 0.000000 0.000000 
